<svg xmlns="http://www.w3.org/2000/svg" viewBox="0 0 841.9 595.3">
  <g fill="#61DAFB">
    <path d="M666.3 296.5c0-32.5-40.7-63.3-103.1-82.4 14.4-63.6 8-114.2-20.2-130.4-6.5-3.8-14.1-5.6-22.4-5.6v22.3c4.6 0 8.3.9 11.4 2.6 13.6 7.8 19.5 60.5-16.3 111.3-4.6 6.5-9.8 12.7-15.6 18.5-3.8-1.1-7.8-2.2-11.9-3.2-10.4-2.6-21.3-4.8-32.5-6.5-1.3-4.6-2.6-9.2-3.9-13.8-18.2-64.2-42.5-99.9-71.1-99.9h-1.3c-27.2 0-51.8 34.4-70.5 98.6-1.3 4.6-2.6 9.2-3.9 13.8-11.2 1.7-22.1 3.9-32.5 6.5-4.1 1-8.1 2.1-11.9 3.2-5.8-5.8-11-12.1-15.6-18.5-35.8-50.8-29.9-103.5-16.3-111.3 3-1.8 6.8-2.6 11.4-2.6V78.1c-8.3 0-15.9 1.8-22.4 5.6-28.1 16.2-34.6 66.8-20.2 130.4-62.4 19.1-103.1 49.9-103.1 82.4 0 32.5 40.7 63.3 103.1 82.4-14.4 63.6-8 114.2 20.2 130.4 6.5 3.8 14.1 5.6 22.4 5.6 4.6 0 8.3-.9 11.4-2.6 13.6-7.8 19.5-60.5-16.3-111.3 4.6-6.5 9.8-12.7 15.6-18.5 3.8 1.1 7.8 2.2 11.9 3.2 10.4 2.6 21.3 4.8 32.5 6.5 1.3 4.6 2.6 9.2 3.9 13.8 18.2 64.2 42.5 99.9 71.1 99.9h1.3c27.2 0 51.8-34.4 70.5-98.6 1.3-4.6 2.6-9.2 3.9-13.8 11.2-1.7 22.1-3.9 32.5-6.5 4.1-1 8.1-2.1 11.9-3.2 5.8 5.8 11 12.1 15.6 18.5 35.8 50.8 29.9 103.5 16.3 111.3-3 1.8-6.8 2.6-11.4 2.6-8.3 0-15.9-1.8-22.4-5.6-28.1-16.2-34.6-66.8-20.2-130.4 62.4-19.1 103.1-49.9 103.1-82.4z"/>
    <ellipse cx="420.9" cy="296.5" rx="45.7" ry="46.3"/>
  </g>
</svg>
